<?xml version="1.0" encoding="UTF-8"?>
<svg xmlns="http://www.w3.org/2000/svg" xmlns:xlink="http://www.w3.org/1999/xlink" width="375pt" height="374.999991pt" viewBox="0 0 375 374.999991" version="1.2">
<g id="surface1">
<path style=" stroke:none;fill-rule:nonzero;fill:rgb(0%,0%,0%);fill-opacity:1;" d="M 187.386719 337.273438 C 149.742188 337.273438 114.296875 322.621094 87.695312 295.964844 C 61.039062 269.367188 46.386719 233.921875 46.386719 196.273438 C 46.386719 158.628906 61.039062 123.183594 87.695312 96.582031 C 114.296875 69.929688 149.742188 55.277344 187.386719 55.277344 C 225.03125 55.277344 260.480469 69.929688 287.078125 96.582031 C 313.734375 123.238281 328.386719 158.628906 328.386719 196.273438 C 328.386719 233.921875 313.734375 269.367188 287.078125 295.964844 C 260.480469 322.621094 225.03125 337.273438 187.386719 337.273438 Z M 187.386719 63.730469 C 151.996094 63.730469 118.691406 77.535156 93.667969 102.558594 C 68.648438 127.578125 54.839844 160.882812 54.839844 196.273438 C 54.839844 231.664062 68.648438 264.972656 93.667969 289.992188 C 118.691406 315.015625 151.996094 328.820312 187.386719 328.820312 C 222.777344 328.820312 256.082031 315.015625 281.105469 289.992188 C 306.125 264.972656 319.933594 231.664062 319.933594 196.273438 C 319.933594 160.882812 306.125 127.578125 281.105469 102.558594 C 256.082031 77.535156 222.777344 63.730469 187.386719 63.730469 Z M 187.386719 63.730469 "/>
<path style=" stroke:none;fill-rule:nonzero;fill:rgb(0%,0%,0%);fill-opacity:1;" d="M 187.394531 329.871094 C 151.726562 329.871094 118.140625 315.988281 92.941406 290.734375 C 67.683594 265.53125 53.804688 231.949219 53.804688 196.28125 C 53.804688 160.613281 67.683594 127.03125 92.941406 101.828125 C 118.140625 76.574219 151.726562 62.691406 187.394531 62.691406 C 223.058594 62.691406 256.644531 76.574219 281.847656 101.828125 C 307.101562 127.082031 320.984375 160.613281 320.984375 196.28125 C 320.984375 231.949219 307.101562 265.53125 281.847656 290.734375 C 256.644531 315.988281 223.058594 329.871094 187.394531 329.871094 Z M 187.394531 70.699219 C 153.863281 70.699219 122.308594 83.78125 98.601562 107.488281 C 74.894531 131.195312 61.8125 162.75 61.8125 196.28125 C 61.8125 229.8125 74.894531 261.367188 98.601562 285.074219 C 122.308594 308.78125 153.863281 321.863281 187.394531 321.863281 C 220.925781 321.863281 252.480469 308.78125 276.1875 285.074219 C 299.894531 261.367188 312.972656 229.8125 312.972656 196.28125 C 312.972656 162.75 299.894531 131.195312 276.1875 107.488281 C 252.480469 83.78125 220.925781 70.699219 187.394531 70.699219 Z M 187.394531 70.699219 "/>
<path style=" stroke:none;fill-rule:nonzero;fill:rgb(0%,0%,0%);fill-opacity:1;" d="M 188.335938 328.359375 C 153.074219 328.359375 119.871094 314.632812 94.953125 289.664062 C 69.984375 264.75 56.257812 231.542969 56.257812 196.28125 C 56.257812 161.019531 69.984375 127.816406 94.953125 102.898438 C 119.871094 77.929688 153.074219 64.207031 188.335938 64.207031 C 223.597656 64.207031 256.800781 77.929688 281.71875 102.898438 C 306.6875 127.867188 320.414062 161.019531 320.414062 196.28125 C 320.414062 231.542969 306.6875 264.75 281.71875 289.664062 C 256.800781 314.632812 223.597656 328.359375 188.335938 328.359375 Z M 188.335938 72.125 C 155.183594 72.125 123.988281 85.058594 100.550781 108.496094 C 77.109375 131.933594 64.179688 163.132812 64.179688 196.28125 C 64.179688 229.433594 77.109375 260.632812 100.550781 284.070312 C 123.988281 307.507812 155.183594 320.441406 188.335938 320.441406 C 221.488281 320.441406 252.683594 307.507812 276.125 284.070312 C 299.5625 260.632812 312.496094 229.433594 312.496094 196.28125 C 312.496094 163.132812 299.5625 131.933594 276.125 108.496094 C 252.683594 85.058594 221.488281 72.125 188.335938 72.125 Z M 188.335938 72.125 "/>
<path style=" stroke:none;fill-rule:nonzero;fill:rgb(0%,0%,0%);fill-opacity:1;" d="M 187.398438 324.949219 C 153.046875 324.949219 120.699219 311.582031 96.425781 287.257812 C 72.101562 262.984375 58.730469 230.636719 58.730469 196.285156 C 58.730469 161.933594 72.101562 129.585938 96.425781 105.3125 C 120.699219 80.988281 153.046875 67.621094 187.398438 67.621094 C 221.75 67.621094 254.09375 80.988281 278.367188 105.3125 C 302.691406 129.636719 316.0625 161.933594 316.0625 196.285156 C 316.0625 230.636719 302.691406 262.984375 278.367188 287.257812 C 254.09375 311.582031 221.75 324.949219 187.398438 324.949219 Z M 187.398438 75.332031 C 155.101562 75.332031 124.710938 87.933594 101.878906 110.765625 C 79.042969 133.597656 66.445312 163.988281 66.445312 196.285156 C 66.445312 228.578125 79.042969 258.972656 101.878906 281.804688 C 124.710938 304.636719 155.101562 317.238281 187.398438 317.238281 C 219.691406 317.238281 250.085938 304.636719 272.917969 281.804688 C 295.75 258.972656 308.347656 228.578125 308.347656 196.285156 C 308.347656 163.988281 295.75 133.597656 272.917969 110.765625 C 250.085938 87.933594 219.691406 75.332031 187.398438 75.332031 Z M 187.398438 75.332031 "/>
<path style=" stroke:none;fill-rule:nonzero;fill:rgb(0%,0%,0%);fill-opacity:1;" d="M 187.402344 318.9375 C 154.65625 318.9375 123.824219 306.191406 100.6875 283.003906 C 77.5 259.867188 64.753906 229.035156 64.753906 196.289062 C 64.753906 163.542969 77.5 132.710938 100.6875 109.574219 C 123.824219 86.386719 154.65625 73.640625 187.402344 73.640625 C 220.148438 73.640625 250.980469 86.386719 274.117188 109.574219 C 297.304688 132.761719 310.050781 163.542969 310.050781 196.289062 C 310.050781 229.035156 297.304688 259.867188 274.117188 283.003906 C 250.980469 306.191406 220.148438 318.9375 187.402344 318.9375 Z M 187.402344 80.996094 C 156.617188 80.996094 127.648438 93.003906 105.882812 114.769531 C 84.117188 136.535156 72.109375 165.503906 72.109375 196.289062 C 72.109375 227.074219 84.117188 256.042969 105.882812 277.808594 C 127.648438 299.574219 156.617188 311.585938 187.402344 311.585938 C 218.1875 311.585938 247.15625 299.574219 268.921875 277.808594 C 290.6875 256.042969 302.695312 227.074219 302.695312 196.289062 C 302.695312 165.503906 290.6875 136.535156 268.921875 114.769531 C 247.15625 93.003906 218.1875 80.996094 187.402344 80.996094 Z M 187.402344 80.996094 "/>
<path style=" stroke:none;fill-rule:nonzero;fill:rgb(0%,0%,0%);fill-opacity:1;" d="M 187.40625 314.050781 C 155.964844 314.050781 126.363281 301.8125 104.148438 279.550781 C 81.886719 257.335938 69.648438 227.734375 69.648438 196.292969 C 69.648438 164.855469 81.886719 135.25 104.148438 113.035156 C 126.363281 90.773438 155.964844 78.539062 187.40625 78.539062 C 218.84375 78.539062 248.449219 90.773438 270.664062 113.035156 C 292.925781 135.296875 305.164062 164.855469 305.164062 196.292969 C 305.164062 227.734375 292.925781 257.335938 270.664062 279.550781 C 248.449219 301.8125 218.84375 314.050781 187.40625 314.050781 Z M 187.40625 85.597656 C 157.847656 85.597656 130.035156 97.128906 109.136719 118.023438 C 88.238281 138.921875 76.707031 166.738281 76.707031 196.292969 C 76.707031 225.851562 88.238281 253.664062 109.136719 274.5625 C 130.035156 295.460938 157.847656 306.992188 187.40625 306.992188 C 216.960938 306.992188 244.777344 295.460938 265.675781 274.5625 C 286.570312 253.664062 298.101562 225.851562 298.101562 196.292969 C 298.101562 166.738281 286.570312 138.921875 265.675781 118.023438 C 244.777344 97.128906 216.960938 85.597656 187.40625 85.597656 Z M 187.40625 85.597656 "/>
<path style=" stroke:none;fill-rule:nonzero;fill:rgb(0%,0%,0%);fill-opacity:1;" d="M 187.410156 308.4375 C 157.472656 308.4375 129.28125 296.78125 108.125 275.582031 C 86.925781 254.429688 75.273438 226.238281 75.273438 196.296875 C 75.273438 166.359375 86.925781 138.167969 108.125 117.011719 C 129.28125 95.8125 157.472656 84.160156 187.410156 84.160156 C 217.347656 84.160156 245.539062 95.8125 266.695312 117.011719 C 287.894531 138.210938 299.546875 166.359375 299.546875 196.296875 C 299.546875 226.238281 287.894531 254.429688 266.695312 275.582031 C 245.539062 296.78125 217.347656 308.4375 187.410156 308.4375 Z M 187.410156 90.882812 C 159.265625 90.882812 132.777344 101.863281 112.875 121.765625 C 92.976562 141.664062 81.996094 168.152344 81.996094 196.296875 C 81.996094 224.445312 92.976562 250.933594 112.875 270.832031 C 132.777344 290.734375 159.265625 301.714844 187.410156 301.714844 C 215.558594 301.714844 242.046875 290.734375 261.945312 270.832031 C 281.84375 250.933594 292.824219 224.445312 292.824219 196.296875 C 292.824219 168.152344 281.84375 141.664062 261.945312 121.765625 C 242.046875 101.863281 215.558594 90.882812 187.410156 90.882812 Z M 187.410156 90.882812 "/>
<path style=" stroke:none;fill-rule:nonzero;fill:rgb(0%,0%,0%);fill-opacity:1;" d="M 187.414062 304.921875 C 158.414062 304.921875 131.105469 293.632812 110.613281 273.101562 C 90.078125 252.609375 78.792969 225.300781 78.792969 196.300781 C 78.792969 167.300781 90.078125 139.992188 110.613281 119.503906 C 131.105469 98.96875 158.414062 87.679688 187.414062 87.679688 C 216.414062 87.679688 243.71875 98.96875 264.210938 119.503906 C 284.746094 140.035156 296.035156 167.300781 296.035156 196.300781 C 296.035156 225.300781 284.746094 252.609375 264.210938 273.101562 C 243.71875 293.632812 216.414062 304.921875 187.414062 304.921875 Z M 187.414062 94.191406 C 160.148438 94.191406 134.492188 104.828125 115.214844 124.105469 C 95.941406 143.378906 85.304688 169.039062 85.304688 196.300781 C 85.304688 223.566406 95.941406 249.222656 115.214844 268.496094 C 134.492188 287.773438 160.148438 298.410156 187.414062 298.410156 C 214.675781 298.410156 240.335938 287.773438 259.609375 268.496094 C 278.886719 249.222656 289.523438 223.566406 289.523438 196.300781 C 289.523438 169.039062 278.886719 143.378906 259.609375 124.105469 C 240.335938 104.828125 214.675781 94.191406 187.414062 94.191406 Z M 187.414062 94.191406 "/>
<path style=" stroke:none;fill-rule:nonzero;fill:rgb(0%,0%,0%);fill-opacity:1;" d="M 187.414062 301.722656 C 159.269531 301.722656 132.765625 290.769531 112.878906 270.839844 C 92.949219 250.953125 81.996094 224.449219 81.996094 196.304688 C 81.996094 168.15625 92.949219 141.65625 112.878906 121.769531 C 132.765625 101.839844 159.269531 90.882812 187.414062 90.882812 C 215.5625 90.882812 242.0625 101.839844 261.953125 121.769531 C 281.882812 141.699219 292.835938 168.15625 292.835938 196.304688 C 292.835938 224.449219 281.882812 250.953125 261.953125 270.839844 C 242.0625 290.769531 215.5625 301.722656 187.414062 301.722656 Z M 187.414062 97.203125 C 160.957031 97.203125 136.054688 107.527344 117.347656 126.234375 C 98.636719 144.941406 88.316406 169.84375 88.316406 196.304688 C 88.316406 222.765625 98.636719 247.664062 117.347656 266.375 C 136.054688 285.082031 160.957031 295.402344 187.414062 295.402344 C 213.875 295.402344 238.777344 285.082031 257.484375 266.375 C 276.191406 247.664062 286.515625 222.765625 286.515625 196.304688 C 286.515625 169.84375 276.191406 144.941406 257.484375 126.234375 C 238.777344 107.527344 213.875 97.203125 187.414062 97.203125 Z M 187.414062 97.203125 "/>
<path style=" stroke:none;fill-rule:nonzero;fill:rgb(0%,0%,0%);fill-opacity:1;" d="M 188.359375 297.421875 C 161.363281 297.421875 135.945312 286.914062 116.867188 267.800781 C 97.753906 248.722656 87.246094 223.304688 87.246094 196.308594 C 87.246094 169.308594 97.753906 143.890625 116.867188 124.816406 C 135.945312 105.699219 161.363281 95.191406 188.359375 95.191406 C 215.355469 95.191406 240.777344 105.699219 259.851562 124.816406 C 278.96875 143.929688 289.476562 169.308594 289.476562 196.308594 C 289.476562 223.304688 278.96875 248.722656 259.851562 267.800781 C 240.777344 286.914062 215.355469 297.421875 188.359375 297.421875 Z M 188.359375 101.253906 C 162.980469 101.253906 139.097656 111.15625 121.152344 129.097656 C 103.207031 147.042969 93.308594 170.925781 93.308594 196.308594 C 93.308594 221.6875 103.207031 245.570312 121.152344 263.515625 C 139.097656 281.460938 162.980469 291.359375 188.359375 291.359375 C 213.742188 291.359375 237.625 281.460938 255.570312 263.515625 C 273.511719 245.570312 283.414062 221.6875 283.414062 196.308594 C 283.414062 170.925781 273.511719 147.042969 255.570312 129.097656 C 237.625 111.15625 213.742188 101.253906 188.359375 101.253906 Z M 188.359375 101.253906 "/>
<path style=" stroke:none;fill-rule:nonzero;fill:rgb(0%,0%,0%);fill-opacity:1;" d="M 188.363281 292.542969 C 162.671875 292.542969 138.480469 282.542969 120.324219 264.351562 C 102.132812 246.195312 92.132812 222.003906 92.132812 196.3125 C 92.132812 170.617188 102.132812 146.425781 120.324219 128.269531 C 138.480469 110.078125 162.671875 100.078125 188.363281 100.078125 C 214.058594 100.078125 238.25 110.078125 256.40625 128.269531 C 274.597656 146.464844 284.597656 170.617188 284.597656 196.3125 C 284.597656 222.003906 274.597656 246.195312 256.40625 264.351562 C 238.25 282.542969 214.058594 292.542969 188.363281 292.542969 Z M 188.363281 105.847656 C 164.210938 105.847656 141.480469 115.269531 124.402344 132.347656 C 107.324219 149.425781 97.898438 172.15625 97.898438 196.3125 C 97.898438 220.464844 107.324219 243.195312 124.402344 260.273438 C 141.480469 277.351562 164.210938 286.773438 188.363281 286.773438 C 212.519531 286.773438 235.25 277.351562 252.328125 260.273438 C 269.40625 243.195312 278.828125 220.464844 278.828125 196.3125 C 278.828125 172.15625 269.40625 149.425781 252.328125 132.347656 C 235.25 115.269531 212.519531 105.847656 188.363281 105.847656 Z M 188.363281 105.847656 "/>
<path style=" stroke:none;fill-rule:nonzero;fill:rgb(0%,0%,0%);fill-opacity:1;" d="M 188.367188 287.871094 C 163.925781 287.871094 140.90625 278.355469 123.636719 261.046875 C 106.328125 243.777344 96.8125 220.757812 96.8125 196.316406 C 96.8125 171.871094 106.328125 148.855469 123.636719 131.582031 C 140.90625 114.273438 163.925781 104.757812 188.367188 104.757812 C 212.8125 104.757812 235.828125 114.273438 253.101562 131.582031 C 270.410156 148.890625 279.921875 171.871094 279.921875 196.316406 C 279.921875 220.757812 270.410156 243.777344 253.101562 261.046875 C 235.828125 278.355469 212.8125 287.871094 188.367188 287.871094 Z M 188.367188 110.25 C 165.386719 110.25 143.761719 119.214844 127.515625 135.460938 C 111.265625 151.707031 102.300781 173.335938 102.300781 196.316406 C 102.300781 219.296875 111.265625 240.921875 127.515625 257.167969 C 143.761719 273.414062 165.386719 282.378906 188.367188 282.378906 C 211.347656 282.378906 232.976562 273.414062 249.222656 257.167969 C 265.46875 240.921875 274.433594 219.296875 274.433594 196.316406 C 274.433594 173.335938 265.46875 151.707031 249.222656 135.460938 C 232.976562 119.214844 211.347656 110.25 188.367188 110.25 Z M 188.367188 110.25 "/>
<path style=" stroke:none;fill-rule:nonzero;fill:rgb(0%,0%,0%);fill-opacity:1;" d="M 188.371094 283.347656 C 165.136719 283.347656 143.257812 274.304688 126.839844 257.851562 C 110.386719 241.433594 101.339844 219.554688 101.339844 196.316406 C 101.339844 173.082031 110.386719 151.203125 126.839844 134.785156 C 143.257812 118.332031 165.136719 109.289062 188.371094 109.289062 C 211.609375 109.289062 233.488281 118.332031 249.90625 134.785156 C 266.359375 151.238281 275.402344 173.082031 275.402344 196.316406 C 275.402344 219.554688 266.359375 241.433594 249.90625 257.851562 C 233.488281 274.304688 211.609375 283.347656 188.371094 283.347656 Z M 188.371094 114.503906 C 166.527344 114.503906 145.96875 123.027344 130.523438 138.472656 C 115.082031 153.914062 106.558594 174.472656 106.558594 196.316406 C 106.558594 218.164062 115.082031 238.71875 130.523438 254.164062 C 145.96875 269.609375 166.527344 278.132812 188.371094 278.132812 C 210.21875 278.132812 230.773438 269.609375 246.21875 254.164062 C 261.664062 238.71875 270.183594 218.164062 270.183594 196.316406 C 270.183594 174.472656 261.664062 153.914062 246.21875 138.472656 C 230.773438 123.027344 210.21875 114.503906 188.371094 114.503906 Z M 188.371094 114.503906 "/>
<path style=" stroke:none;fill-rule:nonzero;fill:rgb(0%,0%,0%);fill-opacity:1;" d="M 188.371094 284.914062 C 164.71875 284.914062 142.445312 275.707031 125.730469 258.957031 C 108.980469 242.242188 99.773438 219.972656 99.773438 196.316406 C 99.773438 172.664062 108.980469 150.390625 125.730469 133.675781 C 142.445312 116.929688 164.71875 107.722656 188.371094 107.722656 C 212.023438 107.722656 234.296875 116.929688 251.011719 133.675781 C 267.761719 150.425781 276.964844 172.664062 276.964844 196.316406 C 276.964844 219.972656 267.761719 242.242188 251.011719 258.957031 C 234.296875 275.707031 212.023438 284.914062 188.371094 284.914062 Z M 188.371094 113.03125 C 166.132812 113.03125 145.207031 121.707031 129.484375 137.429688 C 113.761719 153.152344 105.085938 174.078125 105.085938 196.316406 C 105.085938 218.554688 113.761719 239.480469 129.484375 255.203125 C 145.207031 270.925781 166.132812 279.601562 188.371094 279.601562 C 210.609375 279.601562 231.535156 270.925781 247.257812 255.203125 C 262.980469 239.480469 271.65625 218.554688 271.65625 196.316406 C 271.65625 174.078125 262.980469 153.152344 247.257812 137.429688 C 231.535156 121.707031 210.609375 113.03125 188.371094 113.03125 Z M 188.371094 113.03125 "/>
<path style=" stroke:none;fill-rule:nonzero;fill:rgb(0%,0%,0%);fill-opacity:1;" d="M 188.375 280.261719 C 165.964844 280.261719 144.859375 271.539062 129.027344 255.667969 C 113.15625 239.835938 104.433594 218.730469 104.433594 196.320312 C 104.433594 173.910156 113.15625 152.808594 129.027344 136.972656 C 144.859375 121.101562 165.964844 112.378906 188.375 112.378906 C 210.785156 112.378906 231.886719 121.101562 247.722656 136.972656 C 263.59375 152.839844 272.316406 173.910156 272.316406 196.320312 C 272.316406 218.730469 263.59375 239.835938 247.722656 255.667969 C 231.886719 271.539062 210.785156 280.261719 188.375 280.261719 Z M 188.375 117.414062 C 167.304688 117.414062 147.476562 125.632812 132.582031 140.527344 C 117.6875 155.425781 109.464844 175.25 109.464844 196.320312 C 109.464844 217.390625 117.6875 237.21875 132.582031 252.113281 C 147.476562 267.007812 167.304688 275.230469 188.375 275.230469 C 209.445312 275.230469 229.269531 267.007812 244.167969 252.113281 C 259.0625 237.21875 267.28125 217.390625 267.28125 196.320312 C 267.28125 175.25 259.0625 155.425781 244.167969 140.527344 C 229.269531 125.632812 209.445312 117.414062 188.375 117.414062 Z M 188.375 117.414062 "/>
<path style=" stroke:none;fill-rule:nonzero;fill:rgb(0%,0%,0%);fill-opacity:1;" d="M 188.96875 279.3125 C 166.808594 279.3125 145.945312 270.6875 130.289062 254.996094 C 114.601562 239.34375 105.976562 218.480469 105.976562 196.320312 C 105.976562 174.164062 114.601562 153.300781 130.289062 137.644531 C 145.945312 121.957031 166.808594 113.332031 188.96875 113.332031 C 211.125 113.332031 231.988281 121.957031 247.644531 137.644531 C 263.332031 153.335938 271.957031 174.164062 271.957031 196.320312 C 271.957031 218.480469 263.332031 239.34375 247.644531 254.996094 C 231.988281 270.6875 211.125 279.3125 188.96875 279.3125 Z M 188.96875 118.308594 C 168.136719 118.308594 148.535156 126.433594 133.808594 141.160156 C 119.078125 155.886719 110.953125 175.492188 110.953125 196.320312 C 110.953125 217.152344 119.078125 236.753906 133.808594 251.480469 C 148.535156 266.207031 168.136719 274.335938 188.96875 274.335938 C 209.796875 274.335938 229.398438 266.207031 244.128906 251.480469 C 258.855469 236.753906 266.980469 217.152344 266.980469 196.320312 C 266.980469 175.492188 258.855469 155.886719 244.128906 141.160156 C 229.398438 126.433594 209.796875 118.308594 188.96875 118.308594 Z M 188.96875 118.308594 "/>
<path style=" stroke:none;fill-rule:nonzero;fill:rgb(0%,0%,0%);fill-opacity:1;" d="M 188.378906 277.167969 C 166.792969 277.167969 146.46875 268.769531 131.214844 253.484375 C 115.933594 238.234375 107.53125 217.90625 107.53125 196.324219 C 107.53125 174.738281 115.933594 154.414062 131.214844 139.164062 C 146.46875 123.878906 166.792969 115.476562 188.378906 115.476562 C 209.960938 115.476562 230.285156 123.878906 245.539062 139.164062 C 260.820312 154.445312 269.222656 174.738281 269.222656 196.324219 C 269.222656 217.90625 260.820312 238.234375 245.539062 253.484375 C 230.285156 268.769531 209.960938 277.167969 188.378906 277.167969 Z M 188.378906 120.324219 C 168.085938 120.324219 148.988281 128.242188 134.640625 142.585938 C 120.292969 156.933594 112.378906 176.03125 112.378906 196.324219 C 112.378906 216.617188 120.292969 235.710938 134.640625 250.058594 C 148.988281 264.40625 168.085938 272.324219 188.378906 272.324219 C 208.667969 272.324219 227.765625 264.40625 242.113281 250.058594 C 256.460938 235.710938 264.375 216.617188 264.375 196.324219 C 264.375 176.03125 256.460938 156.933594 242.113281 142.585938 C 227.765625 128.242188 208.667969 120.324219 188.378906 120.324219 Z M 188.378906 120.324219 "/>
<path style=" stroke:none;fill-rule:nonzero;fill:rgb(0%,0%,0%);fill-opacity:1;" d="M 46.390625 196.378906 L 158.96875 117.402344 L 46.390625 38.421875 Z M 46.390625 196.378906 "/>
</g>
</svg>
