<svg width="42" height="42" viewBox="0 0 42 42" fill="none" xmlns="http://www.w3.org/2000/svg">
<path fill-rule="evenodd" clip-rule="evenodd" d="M12.3423 0.126C14.5816 0.0229091 15.2956 0 21 0C26.7044 0 27.4184 0.0248182 29.6558 0.126C31.8933 0.227182 33.4205 0.584182 34.7569 1.10155C36.1563 1.63036 37.4258 2.457 38.4758 3.52609C39.5449 4.57418 40.3696 5.84182 40.8965 7.24309C41.4158 8.57945 41.7709 10.1067 41.874 12.3404C41.9771 14.5835 42 15.2975 42 21C42 26.7044 41.9752 27.4184 41.874 29.6577C41.7728 31.8914 41.4158 33.4186 40.8965 34.755C40.3696 36.1565 39.5435 37.4262 38.4758 38.4758C37.4258 39.5449 36.1563 40.3696 34.7569 40.8965C33.4205 41.4158 31.8933 41.7709 29.6596 41.874C27.4184 41.9771 26.7044 42 21 42C15.2956 42 14.5816 41.9752 12.3423 41.874C10.1086 41.7728 8.58136 41.4158 7.245 40.8965C5.84358 40.3696 4.57384 39.5435 3.52418 38.4758C2.45582 37.4271 1.62906 36.158 1.10155 34.7569C0.584182 33.4205 0.229091 31.8933 0.126 29.6596C0.0229091 27.4165 0 26.7025 0 21C0 15.2956 0.0248182 14.5816 0.126 12.3442C0.227182 10.1067 0.584182 8.57945 1.10155 7.24309C1.62983 5.84197 2.45723 4.57287 3.52609 3.52418C4.57426 2.45605 5.84272 1.6293 7.24309 1.10155C8.57945 0.584182 10.1067 0.229091 12.3404 0.126H12.3423ZM29.4859 3.906C27.2714 3.80482 26.607 3.78382 21 3.78382C15.393 3.78382 14.7286 3.80482 12.5141 3.906C10.4656 3.99955 9.35455 4.34127 8.61382 4.62955C7.63445 5.01136 6.93382 5.46382 6.19882 6.19882C5.50209 6.87664 4.96589 7.70181 4.62955 8.61382C4.34127 9.35455 3.99955 10.4656 3.906 12.5141C3.80482 14.7286 3.78382 15.393 3.78382 21C3.78382 26.607 3.80482 27.2714 3.906 29.4859C3.99955 31.5344 4.34127 32.6455 4.62955 33.3862C4.96555 34.2968 5.502 35.1235 6.19882 35.8012C6.87655 36.498 7.70318 37.0345 8.61382 37.3705C9.35455 37.6587 10.4656 38.0005 12.5141 38.094C14.7286 38.1952 15.3911 38.2162 21 38.2162C26.6089 38.2162 27.2714 38.1952 29.4859 38.094C31.5344 38.0005 32.6455 37.6587 33.3862 37.3705C34.3655 36.9886 35.0662 36.5362 35.8012 35.8012C36.498 35.1235 37.0345 34.2968 37.3705 33.3862C37.6587 32.6455 38.0005 31.5344 38.094 29.4859C38.1952 27.2714 38.2162 26.607 38.2162 21C38.2162 15.393 38.1952 14.7286 38.094 12.5141C38.0005 10.4656 37.6587 9.35455 37.3705 8.61382C36.9886 7.63445 36.5362 6.93382 35.8012 6.19882C35.1233 5.50214 34.2982 4.96595 33.3862 4.62955C32.6455 4.34127 31.5344 3.99955 29.4859 3.906ZM18.3177 27.4737C19.8157 28.0973 21.4837 28.1815 23.0369 27.7118C24.59 27.2422 25.9319 26.2479 26.8334 24.8988C27.7349 23.5497 28.1401 21.9295 27.9797 20.3148C27.8193 18.7002 27.1034 17.1913 25.9541 16.0459C25.2215 15.3137 24.3356 14.7531 23.3603 14.4044C22.385 14.0556 21.3445 13.9275 20.3137 14.0292C19.2829 14.1308 18.2875 14.4598 17.3991 14.9923C16.5107 15.5249 15.7514 16.2478 15.1759 17.109C14.6005 17.9702 14.2231 18.9483 14.071 19.9728C13.9189 20.9974 13.9958 22.0429 14.2963 23.0342C14.5968 24.0254 15.1133 24.9377 15.8086 25.7054C16.504 26.473 17.3609 27.077 18.3177 27.4737ZM13.3675 13.3675C14.3698 12.3651 15.5597 11.5701 16.8693 11.0276C18.1789 10.4851 19.5825 10.2059 21 10.2059C22.4175 10.2059 23.8211 10.4851 25.1307 11.0276C26.4403 11.5701 27.6302 12.3651 28.6325 13.3675C29.6349 14.3698 30.4299 15.5597 30.9724 16.8693C31.5149 18.1789 31.794 19.5825 31.794 21C31.794 22.4175 31.5149 23.8211 30.9724 25.1307C30.4299 26.4403 29.6349 27.6302 28.6325 28.6325C26.6083 30.6568 23.8628 31.794 21 31.794C18.1372 31.794 15.3917 30.6568 13.3675 28.6325C11.3432 26.6083 10.206 23.8628 10.206 21C10.206 18.1372 11.3432 15.3917 13.3675 13.3675ZM34.188 11.8135C34.4364 11.5792 34.6352 11.2974 34.7728 10.9849C34.9103 10.6723 34.9837 10.3354 34.9887 9.99396C34.9937 9.65254 34.9301 9.31359 34.8017 8.99718C34.6734 8.68077 34.4828 8.39334 34.2414 8.15189C33.9999 7.91045 33.7125 7.7199 33.3961 7.59153C33.0797 7.46317 32.7407 7.39959 32.3993 7.40457C32.0579 7.40954 31.7209 7.48298 31.4084 7.62051C31.0959 7.75805 30.8141 7.95689 30.5798 8.20527C30.1241 8.68833 29.8747 9.32996 29.8843 9.99396C29.894 10.658 30.1621 11.292 30.6317 11.7616C31.1012 12.2312 31.7353 12.4993 32.3993 12.5089C33.0633 12.5186 33.7049 12.2691 34.188 11.8135Z" fill="#D1D2DC"/>
</svg>
